<?xml version="1.0" standalone="no"?><!DOCTYPE svg PUBLIC "-//W3C//DTD SVG 1.1//EN" "http://www.w3.org/Graphics/SVG/1.1/DTD/svg11.dtd"><svg t="1728727001060" class="icon" viewBox="0 0 1024 1024" version="1.1" xmlns="http://www.w3.org/2000/svg" p-id="16608" xmlns:xlink="http://www.w3.org/1999/xlink" width="200" height="200"><path d="M121.9072 509.563733a388.957867 388.957867 0 1 0 777.915733 0 388.957867 388.957867 0 1 0-777.915733 0Z" fill="#EBEFF6" p-id="16609"></path><path d="M948.164267 349.056a33.314133 33.314133 0 0 0 33.3184-33.322667 33.262933 33.262933 0 0 0-33.322667-33.322666 33.314133 33.314133 0 0 0-33.3184 33.322666c0 18.368 14.954667 33.322667 33.322667 33.322667zM996.923733 219.0208c12.5952 0 22.754133-10.24 22.754134-22.7584a22.72 22.72 0 0 0-22.754134-22.754133 22.7712 22.7712 0 0 0-22.7584 22.754133c0 12.5184 10.24 22.7584 22.7584 22.7584zM903.057067 509.563733c0 113.7792-49.5744 215.364267-128.405334 285.256534H143.202133a14.570667 14.570667 0 0 1-14.6304-14.6304V251.938133a14.5664 14.5664 0 0 1 14.6304-14.6304h643.639467c71.517867 67.456 116.215467 164.9792 116.215467 272.256z" fill="#EBEFF6" p-id="16610"></path><path d="M773.832533 794.005333h0.810667a524.706133 524.706133 0 0 0 30.071467-30.0672c-8.938667 11.374933-19.502933 21.128533-30.882134 30.0672z" fill="#EBEFF6" p-id="16611"></path><path d="M405.700267 564.821333H152.1408a7.2832 7.2832 0 0 1-7.317333-7.313066V375.466667c0-4.066133 3.2512-7.317333 7.317333-7.317334h253.559467c4.066133 0 7.313067 3.2512 7.313066 7.317334v182.0416c0 3.2512-3.246933 7.317333-7.313066 7.317333zM868.919467 352.712533H152.1408a7.2832 7.2832 0 0 1-7.317333-7.317333v-86.144c0-4.061867 3.2512-7.313067 7.317333-7.313067h650.1376c9.7536 10.564267 18.692267 21.9392 27.6352 33.322667A398.2464 398.2464 0 0 1 855.104 324.266667c4.8768 9.7536 9.7536 18.688 13.815467 28.445866z" fill="#FFFFFF" p-id="16612"></path><path d="M855.104 325.077333H742.954667c-2.436267 0-4.061867-1.621333-4.061867-4.061866V290.133333c0-2.436267 1.6256-4.061867 4.061867-4.061866h86.144c9.757867 12.189867 17.8816 25.194667 26.0096 39.010133z" fill="#98A0B0" p-id="16613"></path><path d="M835.601067 309.632h-68.266667c-2.440533 0-4.066133-1.621333-4.066133-4.061867 0-2.436267 1.6256-4.061867 4.066133-4.061866h68.266667c2.436267 0 4.061867 1.621333 4.061866 4.061866 0 1.6256-1.621333 4.066133-4.061866 4.066134zM686.890667 564.821333h-253.559467a7.2832 7.2832 0 0 1-7.317333-7.313066V375.466667c0-4.066133 3.2512-7.317333 7.317333-7.317334h253.559467c4.066133 0 7.317333 3.2512 7.317333 7.317334v182.0416c0.810667 3.2512-2.440533 7.317333-7.317333 7.317333zM898.176 450.235733c-4.872533-29.256533-12.1856-56.887467-22.754133-82.8928h-160.098134c-4.066133 0-7.296 3.246933-7.296 7.313067v182.045867c0 4.061867 3.229867 7.313067 7.296 7.313066H898.986667c2.440533-17.877333 4.066133-36.573867 4.066133-54.4512 0-16.256-0.810667-32.512-3.2512-48.763733l-1.6256-10.564267zM405.700267 776.123733H152.1408a7.2832 7.2832 0 0 1-7.317333-7.313066v-182.045867c0-4.061867 3.2512-7.313067 7.317333-7.313067h253.559467c4.066133 0 7.313067 3.2512 7.313066 7.313067v182.045867c0 4.066133-3.246933 7.313067-7.313066 7.313066zM686.890667 776.123733h-253.559467a7.2832 7.2832 0 0 1-7.317333-7.313066v-182.045867c0-4.061867 3.2512-7.313067 7.317333-7.313067h253.559467c4.066133 0 7.317333 3.2512 7.317333 7.313067v182.045867c0.810667 4.066133-2.440533 7.313067-7.317333 7.313066zM896.554667 579.456c-1.629867 9.749333-4.066133 18.688-6.5024 27.626667-0.810667 3.2512-1.6256 5.691733-2.440534 8.942933-2.436267 8.938667-5.687467 17.877333-8.938666 26.816-2.440533 6.5024-5.687467 13.815467-8.128 20.317867l-7.313067 14.6304c-0.810667 2.436267-2.440533 4.8768-4.066133 7.313066-4.872533 8.938667-9.749333 17.877333-15.441067 26.820267-1.621333 2.436267-3.246933 5.687467-5.687467 8.128l-17.066666 24.379733c-2.436267 3.2512-4.8768 5.687467-7.313067 8.938667a291.195733 291.195733 0 0 1-21.1328 23.569067h-78.830933c-4.0448 0-7.296-3.2512-7.296-7.313067v-182.8608c0-4.061867 3.2512-7.313067 7.296-7.313067h182.856533z" fill="#FFFFFF" p-id="16614"></path><path d="M274.858667 620.906667v19.502933c19.498667 2.436267 34.133333 17.066667 36.565333 35.754667h20.317867c-2.432-29.252267-26.816-52.821333-56.887467-55.2576z m-4.881067 103.210666c-22.754133 0-42.257067-18.692267-42.257067-41.4464a41.463467 41.463467 0 0 1 36.5696-41.450666v-19.502934c-30.882133 2.436267-56.0768 29.256533-56.0768 61.764267 0 34.133333 27.630933 61.764267 61.764267 61.764267 17.066667 0 32.512-6.498133 43.076267-17.877334l-14.6304-13.815466c-7.313067 7.313067-17.877333 10.564267-28.445867 10.564266z m40.635733-34.133333c0.810667-0.810667 0.810667-1.6256 0.810667-2.436267h21.1328v2.432c-0.810667 0-0.810667 0.814933-0.810667 1.629867 0 0-0.814933 0.810667-0.814933 1.621333 0 0.814933 0 2.440533-0.810667 4.066134 0 0-0.810667 0.810667-0.810666 1.6256-1.629867 2.440533-2.440533 4.8768-3.255467 7.317333 0 0.810667 0 1.621333-0.810667 2.432-0.810667 2.440533-2.440533 4.881067-4.066133 7.317333-0.810667 0.810667-0.810667 1.6256-1.621333 2.440534l-14.634667-13.0048c0.814933 0 0.814933-0.810667 1.629867-1.6256 0 0 0-0.810667 0.810666-1.621334v-0.814933c0.810667-0.810667 0.810667-2.440533 1.6256-4.066133 0-0.810667 0-1.621333 0.810667-2.436267 0-1.6256 0-3.2512 0.814933-4.8768z" fill="#E3E8F2" p-id="16615"></path><path d="M331.741867 676.9792h-19.502934c-2.440533-19.5072-17.877333-34.133333-36.573866-35.758933v-19.5072c29.2608 1.6256 53.640533 25.194667 56.0768 55.266133zM331.746133 687.5392v2.436267c0 0.814933 0 1.6256-0.810666 1.6256 0 0.810667 0 1.6256-0.810667 1.6256-0.814933 1.6256-0.814933 3.2512-0.814933 4.066133 0 0.810667-0.810667 1.621333-0.810667 1.621333-0.814933 2.440533-1.629867 4.881067-3.255467 7.317334-0.810667 0.810667-0.810667 1.6256-0.810666 2.436266-0.810667 2.440533-2.436267 4.8768-4.061867 7.317334-0.810667 0.810667-0.810667 1.621333-1.6256 2.436266l-13.815467-13.000533c0.810667-0.810667 0.810667-1.6256 1.621334-1.6256 0.814933-0.810667 0.814933-1.6256 0.814933-1.6256v-0.810667c0.810667-1.629867 1.621333-3.255467 1.621333-4.066133 0.814933-0.810667 0.814933-1.6256 0.814934-2.440533 0.810667-1.621333 0.810667-3.2512 0.810666-4.872534 0-0.814933 0.814933-1.6256 0.814934-2.440533h20.317866z" fill="#98A0B0" p-id="16616"></path><path d="M898.180267 450.231467c0.814933 4.066133 1.6256 7.317333 1.6256 10.568533l-42.257067 38.1952c0.810667 1.621333 0.810667 2.436267 0.810667 4.061867 0 6.5024-4.8768 12.194133-12.189867 12.194133-6.5024 0-12.189867-4.8768-12.189867-12.194133 0-1.621333 0-2.436267 0.810667-4.061867l-39.010133-39.010133c-0.810667 0.810667-3.246933 1.6256-4.872534 1.6256-1.6256 0-2.440533-0.810667-4.8768-1.621334l-31.697066 32.503467c0.810667 1.6256 1.6256 3.2512 1.6256 4.8768 0 6.5024-5.687467 12.189867-12.189867 12.189867-6.5024 0-12.189867-5.687467-12.189867-12.189867 0-6.5024 4.8768-12.189867 12.189867-12.189867 1.6256 0 3.2512 0 4.8768 0.810667l33.322667-31.6928c-0.814933-1.6256-0.814933-3.2512-0.814934-4.8768 0-6.5024 5.687467-12.189867 12.189867-12.189867 6.5024 0 12.189867 4.8768 12.189867 12.189867 0 2.436267 0 3.2512-0.810667 4.8768l39.010133 39.010133c1.621333-0.810667 4.061867-1.6256 5.687467-1.6256 1.621333 0 4.061867 0.810667 5.687467 1.621334l43.072-43.072z m-110.523734-0.810667c0 3.2512 2.436267 5.687467 5.687467 5.687467 4.061867 0 5.687467-2.436267 5.687467-5.687467S796.5952 443.733333 793.344 443.733333s-5.687467 2.436267-5.687467 5.687467z m-48.763733 49.578667c0 3.246933 2.436267 5.6832 5.687467 5.6832s5.691733-3.246933 5.691733-5.687467c0-3.2512-2.440533-5.687467-5.691733-5.687467-3.2512 0-5.687467 2.436267-5.687467 5.687467z m111.338667 11.374933a5.5552 5.5552 0 0 1-5.687467-5.691733c0-3.2512 2.436267-5.687467 5.687467-5.687467s5.691733 2.436267 5.691733 5.687467c0.810667 3.2512-1.6256 5.691733-5.691733 5.691733z" fill="#E6EBF5" p-id="16617"></path><path d="M474.7776 499.805867h-11.3792c-0.810667 0-2.436267-1.621333-2.436267-2.436267v-61.764267c0-1.6256 0.810667-2.440533 2.436267-2.440533h11.3792c0.810667 0 2.436267 1.6256 2.436267 2.440533v61.764267c-0.810667 0.810667-1.621333 2.436267-2.436267 2.436267z" fill="#98A0B0" p-id="16618"></path><path d="M481.28 499.805867h-13.0048a1.749333 1.749333 0 0 1-1.621333-1.621334v-28.450133c0-1.621333 0.810667-1.621333 1.621333-1.621333h13.0048c0.810667 0 1.621333 0.810667 1.621333 1.621333v28.445867c0 0.810667-0.810667 1.6256-1.621333 1.6256z" fill="#CED5E2" p-id="16619"></path><path d="M504.0384 499.805867h-11.3792c-0.810667 0-2.436267-1.621333-2.436267-2.436267v-43.076267c0-1.621333 0.810667-2.432 2.436267-2.432h11.3792c0.810667 0 2.436267 1.621333 2.436267 2.432v43.076267c0 0.810667-1.621333 2.436267-2.436267 2.436267zM533.290667 499.810133h-11.374934c-0.810667 0-2.440533-1.6256-2.440533-2.440533v-27.630933c0-1.621333 0.810667-2.436267 2.440533-2.436267h11.374934c0.810667 0 2.440533 1.621333 2.440533 2.436267v26.820266c0 1.621333-1.6256 3.2512-2.440533 3.2512zM562.555733 499.805867h-11.3792c-0.810667 0-2.436267-1.621333-2.436266-2.436267v-51.2c0-1.6256 0.810667-2.440533 2.436266-2.440533h11.3792c0.810667 0 2.436267 1.6256 2.436267 2.440533v51.2c0 0.810667-0.810667 2.436267-2.436267 2.436267zM592.618667 499.805867h-11.3792c-0.810667 0-2.436267-1.621333-2.436267-2.436267v-30.882133c0-1.6256 0.810667-2.440533 2.436267-2.440534h11.3792c0.810667 0 2.436267 1.6256 2.436266 2.440534v30.882133c0 0.810667-0.810667 2.436267-2.436266 2.436267zM621.879467 499.805867h-11.3792c-0.810667 0-2.436267-1.621333-2.436267-2.436267v-43.076267c0-1.621333 0.810667-2.432 2.436267-2.432h11.3792c0.810667 0 2.436267 1.621333 2.436266 2.432v43.076267c0 0.810667-0.810667 2.436267-2.436266 2.436267zM651.950933 499.810133h-11.3792c-0.810667 0-2.436267-1.6256-2.436266-2.440533v-27.630933c0-1.621333 0.810667-2.436267 2.436266-2.436267h11.3792c0.810667 0 2.440533 1.621333 2.440534 2.436267v26.820266c-0.814933 1.621333-1.6256 3.2512-2.440534 3.2512z" fill="#98A0B0" p-id="16620"></path><path d="M510.5408 499.810133h-13.815467c-0.810667 0-0.810667-0.810667-0.810666-1.6256v-17.066666c0-0.810667 0.810667-1.6256 0.810666-1.6256h13.815467c0.810667 0 0.810667 0.810667 0.810667 1.621333v17.066667c0.814933 0.814933 0 1.629867-0.810667 1.629866zM540.603733 499.805867h-13.815466c-0.810667 0-0.810667-0.810667-0.810667-1.621334v-8.132266c0-0.810667 0.810667-1.621333 0.810667-1.621334h13.815466c0.810667 0 0.810667 0.810667 0.810667 1.621334v8.128c0 0.810667 0 1.6256-0.810667 1.6256zM569.8688 499.805867h-13.815467c-0.814933 0-0.814933-0.810667-0.814933-1.621334v-12.194133c0-0.810667 0.810667-1.621333 0.810667-1.621333h13.819733c0.810667 0 0.810667 0.810667 0.810667 1.621333v12.189867c0.810667 0.810667 0.810667 1.6256-0.810667 1.6256zM599.936 499.8144h-13.0048c-0.810667 0-0.810667-0.810667-0.810667-1.6256v-21.943467c0-0.810667 0.810667-1.6256 0.810667-1.6256h13.0048c0.810667 0 0.810667 0.810667 0.810667 1.621334v21.947733c0.810667 0.810667 0 1.621333-0.810667 1.621333zM630.813867 499.8144h-14.626134c-0.814933 0-0.814933 0-0.814933-0.810667V494.933333c0-0.810667 0-0.810667 0.810667-0.810666h14.634666c0.810667 0 0.810667 0 0.810667 0.810666v3.2512c0 0.810667 0 1.621333-0.810667 1.621334zM660.074667 499.810133h-14.626134s-0.810667 0-0.810666-0.810666v-1.629867s0-0.810667 0.810666-0.810667h14.626134s0.810667 0 0.810666 0.810667l-0.810666 2.440533s0.810667-0.810667 0 0z" fill="#CED5E2" p-id="16621"></path><path d="M673.079467 605.461333H447.957333v30.0672h225.117867v-30.0672z" fill="#E6EBF5" p-id="16622"></path><path d="M578.8032 615.210667h-61.764267v8.942933h61.764267v-8.938667zM656.823467 615.210667H634.88v8.942933h21.943467v-8.938667z" fill="#CED5E2" p-id="16623"></path><path d="M673.079467 662.3488H447.957333v30.071467h225.117867v-30.071467z" fill="#E6EBF5" p-id="16624"></path><path d="M560.110933 673.732267h-43.072V682.666667h43.072v-8.938667zM656.823467 673.732267h-38.1952V682.666667h38.1952v-8.938667z" fill="#CED5E2" p-id="16625"></path><path d="M673.079467 720.046933H447.957333v30.071467h225.117867v-30.071467z" fill="#E6EBF5" p-id="16626"></path><path d="M588.5568 730.619733h-71.517867v8.938667h71.517867v-8.938667zM656.827733 730.619733h-12.194133v8.938667h12.194133v-8.938667zM204.9664 291.7632h-34.133333c-2.436267 0-4.061867-2.440533-4.061867-4.066133v-4.061867c0-2.440533 2.436267-4.061867 4.061867-4.061867h34.133333c2.436267 0 4.061867 2.436267 4.061867 4.061867v4.061867c0 1.6256-1.621333 4.066133-4.061867 4.066133z" fill="#CED5E2" p-id="16627"></path><path d="M439.8336 291.7632H238.2848c-2.436267 0-4.061867-2.440533-4.061867-4.066133v-4.061867c0-2.440533 2.436267-4.061867 4.061867-4.061867h201.5488c2.440533 0 4.066133 2.436267 4.066133 4.061867v4.061867c0 1.6256-1.6256 4.066133-4.066133 4.066133z" fill="#E3E8F2" p-id="16628"></path><path d="M204.9664 325.077333h-34.133333c-2.436267 0-4.061867-2.432-4.061867-4.061866v-4.061867c0-2.440533 2.436267-4.066133 4.061867-4.066133h34.133333c2.436267 0 4.061867 2.440533 4.061867 4.066133v4.061867c0 2.440533-1.621333 4.066133-4.061867 4.066133z" fill="#CED5E2" p-id="16629"></path><path d="M346.372267 321.015467c0 2.440533-2.432 4.066133-4.061867 4.066133H238.293333c-2.440533 0-4.066133-2.440533-4.066133-4.066133v-4.061867c0-2.440533 2.436267-4.066133 4.061867-4.066133H342.314667c2.440533 0 4.061867 2.440533 4.061866 4.066133v4.061867z" fill="#E3E8F2" p-id="16630"></path><path d="M384.571733 541.2608H166.7712v-135.722667c11.374933 0.810667 22.754133 1.6256 33.322667 4.8768 4.872533 1.6256 8.123733 3.2512 11.374933 6.5024 1.621333 1.6256 1.621333 2.436267 1.621333 3.2512 1.629867 4.061867 4.881067 6.5024 10.568534 7.313067l4.8768 0.810667c9.7536 0.814933 17.066667 6.5024 17.877333 13.0048l1.6256 11.3792c10.564267 2.436267 11.3792 2.436267 21.1328 4.8768 1.621333 0.810667 1.621333 0 2.436267-0.810667 0.810667-0.814933 1.6256-0.814933 2.440533-0.814933 1.621333 0 1.621333 0 3.246933-0.810667 1.6256-0.814933 3.2512-0.814933 4.066134 0.810667 4.061867 5.687467 12.189867 8.938667 17.066666 13.815466 5.687467 5.687467 15.441067 4.8768 21.943467 4.8768 1.621333 0 4.061867 0.810667 5.687467 1.621334 8.128 5.691733 21.128533 24.384 31.697066 24.384 4.061867 0 7.313067 1.6256 9.749334 3.2512 8.942933 13.0048 14.6304 23.569067 17.066666 37.384533z" fill="#EBEFF6" p-id="16631"></path><path d="M378.88 542.071467c-2.440533-12.189867-8.128-21.943467-17.066667-32.512-0.814933-0.810667-3.255467-1.621333-5.691733-1.621334-9.7536 0-17.877333-8.938667-26.005333-17.066666-3.2512-3.2512-6.5024-6.5024-8.938667-8.128-0.810667-0.810667-2.440533-0.810667-2.440533-0.810667h-4.061867c-6.5024 0-15.445333-0.810667-21.943467-6.5024-1.6256-2.440533-4.061867-4.066133-7.313066-5.687467-3.2512-2.440533-6.5024-4.066133-8.942934-7.317333h-3.2512c-0.810667 0.810667-4.061867 2.440533-8.123733 0.810667l-4.8768-1.621334c-4.8768-0.810667-7.313067-1.6256-15.445333-3.2512h-2.432l-1.629867-15.445333c0-4.061867-5.687467-7.3088-12.189867-8.123733l-4.8768-0.810667c-7.313067-0.810667-13.815467-4.8768-15.441066-11.3792v-0.810667c-2.436267-2.440533-4.872533-4.066133-8.123734-4.8768-9.7536-3.2512-21.1328-4.066133-31.697066-4.8768l0.810666-12.189866c11.3792 0.810667 23.569067 1.621333 34.948267 5.687466 5.687467 1.621333 10.564267 4.8768 13.815467 8.938667 0.810667 0.810667 2.440533 3.2512 3.2512 6.5024 0.810667 1.621333 2.436267 2.436267 4.8768 2.436267l4.8768 0.810666c13.000533 0.814933 21.943467 8.942933 23.569066 18.696534l0.810667 6.5024c4.8768 0.810667 7.313067 1.621333 11.3792 2.436266l4.8768 0.810667c1.621333-0.810667 3.246933-1.621333 4.872533-1.621333h1.6256c4.066133-1.6256 8.942933 0 11.3792 3.246933 1.6256 1.6256 4.8768 4.066133 7.313067 5.691733 3.2512 2.436267 6.5024 4.061867 8.942933 7.313067 2.436267 2.440533 8.123733 2.440533 13.815467 3.2512h4.061867c3.2512 0 5.687467 1.6256 8.128 2.436267l0.810666 0.810666c3.2512 2.440533 7.317333 5.691733 10.564267 9.757867 4.8768 5.687467 13.0048 13.000533 17.066667 13.000533 4.8768 0 9.7536 1.6256 13.819733 4.8768 11.374933 12.189867 17.877333 24.379733 20.3136 39.010134l-15.441067 1.621333z" fill="#98A0B0" p-id="16632"></path><path d="M375.637333 458.368H279.7312a7.2832 7.2832 0 0 1-7.313067-7.317333v-34.133334c0-4.061867 3.2512-7.313067 7.313067-7.313066h95.8976c4.066133 0 7.313067 3.2512 7.313067 7.313066v34.133334c0 4.061867-3.246933 7.313067-7.313067 7.313066z" fill="#98A0B0" p-id="16633"></path><path d="M363.434667 423.415467H292.736c-1.621333 0-2.436267 1.6256-2.436267 2.440533 0 0.810667 0.810667 3.2512 1.621334 3.2512H362.624c1.621333 0 2.436267-1.6256 2.436267-2.440533 0-0.810667-0.810667-3.2512-1.621334-3.2512zM330.120533 439.671467h-38.199466c-1.621333 0-2.436267 1.6256-2.436267 2.440533 0 1.621333 1.621333 2.436267 2.436267 2.436267h38.199466c1.621333 0 2.436267-1.621333 2.436267-2.436267 0-0.810667-1.621333-2.440533-2.436267-2.440533z" fill="#FFFFFF" p-id="16634"></path><path d="M890.056533 607.086933c-0.810667 3.2512-1.6256 5.687467-2.440533 8.938667h-8.938667v25.194667h0.810667c-2.432 6.5024-4.872533 13.815467-8.123733 20.317866v-11.3792H811.221333v26.820267h52.821334c-1.621333 2.440533-2.432 4.8768-4.061867 7.313067h-48.759467v26.820266h34.133334c-2.440533 2.440533-4.066133 5.687467-5.691734 8.128h-28.4416v24.379734h11.374934c-2.436267 3.2512-4.8768 5.687467-7.313067 8.938666H743.765333c-6.5024 0-12.189867-6.498133-12.189866-13.815466v-117.841067c0-7.313067 4.8768-13.815467 12.189866-13.815467h146.286934z m-86.958933 8.938667H743.765333c-2.440533 0-4.8768 1.6256-4.8768 5.691733v21.9392h64.2048v-27.630933z m8.128 27.630933h60.138667v-27.630933H811.221333v27.630933z m-8.942933 33.322667h-64.200534v-26.820267h64.200534v26.820267z m-63.389867 8.128h64.2048v26.820267h-64.2048v-26.820267z m0 34.944v19.5072c0 2.436267 2.436267 4.8768 4.8768 4.8768h59.328v-24.384h-64.2048z" fill="#E3E8F2" p-id="16635"></path><path d="M786.8416 235.682133a178.602667 178.602667 0 0 0-18.688-16.256v15.445334c3.246933 3.2512 7.313067 6.498133 10.564267 9.749333 69.077333 66.645333 112.964267 160.917333 112.964266 264.942933 0 108.898133-47.138133 207.232-122.717866 274.688v15.445334c1.621333-1.6256 4.061867-3.2512 5.687466-4.8768 78.830933-69.892267 128.405333-171.477333 128.405334-285.256534 0-107.2768-44.6976-204.8-116.215467-273.877333zM210.653867 139.784533q0 1.0368-0.046934 2.0736-0.0512 1.0368-0.1536 2.069334-0.1024 1.032533-0.256 2.056533-0.149333 1.024-0.354133 2.048-0.200533 1.015467-0.452267 2.0224-0.256 1.002667-0.554666 1.9968-0.298667 0.994133-0.6528 1.9712-0.3456 0.977067-0.7424 1.9328-0.401067 0.96-0.840534 1.898667-0.443733 0.938667-0.9344 1.851733t-1.024 1.8048q-0.533333 0.891733-1.109333 1.749333-0.576 0.866133-1.194667 1.698134-0.618667 0.832-1.275733 1.634133t-1.352533 1.5744q-0.699733 0.768-1.4336 1.501867-0.7296 0.733867-1.501867 1.429333-0.768 0.695467-1.570133 1.352533-0.802133 0.661333-1.634134 1.28-0.832 0.6144-1.698133 1.194667-0.861867 0.576-1.749333 1.109333-0.891733 0.533333-1.8048 1.024-0.917333 0.4864-1.851734 0.930134-0.938667 0.443733-1.898666 0.840533-0.96 0.3968-1.9328 0.746667-0.981333 0.349867-1.9712 0.648533-0.994133 0.298667-2.001067 0.554667-1.002667 0.251733-2.0224 0.452266-1.015467 0.2048-2.043733 0.354134-1.024 0.1536-2.056534 0.256t-2.069333 0.1536q-1.0368 0.0512-2.0736 0.0512t-2.0736-0.0512q-1.0368-0.0512-2.069333-0.1536-1.032533-0.1024-2.0608-0.256-1.024-0.149333-2.043734-0.354134-1.015467-0.200533-2.0224-0.452266-1.006933-0.256-1.9968-0.554667-0.994133-0.298667-1.9712-0.648533-0.977067-0.349867-1.937066-0.746667-0.955733-0.3968-1.8944-0.840533-0.938667-0.443733-1.851734-0.9344-0.917333-0.4864-1.8048-1.024-0.891733-0.529067-1.7536-1.109334-0.861867-0.576-1.698133-1.194666-0.832-0.6144-1.634133-1.275734-0.802133-0.657067-1.570134-1.352533t-1.501866-1.429333q-0.733867-0.733867-1.429334-1.501867-0.695467-0.768-1.3568-1.5744-0.657067-0.802133-1.275733-1.634133t-1.194667-1.693867q-0.576-0.861867-1.109333-1.7536-0.533333-0.891733-1.024-1.8048-0.4864-0.913067-0.930133-1.851733t-0.840534-1.898667q-0.3968-0.955733-0.746666-1.9328-0.349867-0.981333-0.6528-1.9712-0.298667-0.994133-0.554667-1.9968-0.247467-1.006933-0.452267-2.026667-0.200533-1.015467-0.354133-2.043733-0.149333-1.024-0.256-2.056533-0.098133-1.032533-0.149333-2.069334-0.0512-1.0368-0.0512-2.0736t0.0512-2.0736q0.0512-1.0368 0.1536-2.069333 0.1024-1.032533 0.256-2.056533 0.149333-1.024 0.349866-2.048 0.2048-1.015467 0.456534-2.0224t0.554666-1.9968q0.298667-0.994133 0.648534-1.9712 0.349867-0.977067 0.746666-1.9328 0.3968-0.96 0.840534-1.898667 0.443733-0.938667 0.9344-1.851733 0.4864-0.917333 1.024-1.8048 0.529067-0.891733 1.109333-1.749334 0.571733-0.866133 1.194667-1.698133 0.6144-0.836267 1.271466-1.6384 0.661333-0.802133 1.3568-1.570133t1.429334-1.501867q0.733867-0.733867 1.501866-1.429333 0.768-0.695467 1.570134-1.3568 0.802133-0.657067 1.634133-1.275734 0.836267-0.6144 1.698133-1.194666 0.861867-0.576 1.749334-1.109334 0.896-0.533333 1.809066-1.024 0.913067-0.4864 1.851734-0.930133t1.8944-0.840533q0.96-0.3968 1.937066-0.746667 0.977067-0.349867 1.9712-0.648533 0.989867-0.298667 1.9968-0.554667 1.006933-0.256 2.0224-0.456533 1.019733-0.200533 2.048-0.354134 1.024-0.149333 2.056534-0.256 1.032533-0.098133 2.069333-0.149333 1.0368-0.0512 2.0736-0.0512t2.0736 0.0512q1.0368 0.0512 2.069333 0.1536 1.032533 0.1024 2.056534 0.256 1.024 0.149333 2.048 0.349867 1.015467 0.2048 2.018133 0.456533 1.006933 0.256 2.001067 0.554667 0.994133 0.298667 1.9712 0.648533 0.9728 0.349867 1.9328 0.746667 0.96 0.3968 1.898666 0.840533 0.938667 0.443733 1.851734 0.9344 0.913067 0.4864 1.8048 1.024 0.887467 0.529067 1.749333 1.109333 0.866133 0.576 1.698133 1.194667 0.832 0.6144 1.634134 1.271467 0.802133 0.661333 1.570133 1.3568t1.501867 1.429333q0.733867 0.733867 1.4336 1.501867 0.695467 0.768 1.352533 1.570133t1.28 1.6384q0.6144 0.832 1.194667 1.693867 0.571733 0.861867 1.109333 1.749333 0.529067 0.896 1.019733 1.809067 0.490667 0.913067 0.9344 1.851733 0.439467 0.938667 0.840534 1.898667 0.3968 0.955733 0.7424 1.9328 0.349867 0.981333 0.6528 1.9712 0.298667 0.989867 0.554666 1.9968 0.251733 1.006933 0.452267 2.026666 0.2048 1.015467 0.354133 2.043734 0.1536 1.024 0.256 2.056533t0.1536 2.069333q0.046933 1.0368 0.046934 2.0736z" fill="#EBEFF6" p-id="16636"></path></svg>